<svg width="16" height="18" viewBox="0 0 16 18" fill="none" xmlns="http://www.w3.org/2000/svg">
<path d="M2.00377 7.28083C2.03376 6.9072 2.20337 6.55859 2.47884 6.3044C2.7543 6.05021 3.1154 5.9091 3.49022 5.90918H12.479C12.8538 5.9091 13.2149 6.05021 13.4904 6.3044C13.7658 6.55859 13.9354 6.9072 13.9654 7.28083L14.564 14.7354C14.5805 14.9406 14.5543 15.1469 14.4871 15.3414C14.4199 15.536 14.3132 15.7145 14.1736 15.8657C14.0341 16.017 13.8647 16.1377 13.6762 16.2203C13.4877 16.3029 13.2841 16.3456 13.0783 16.3456H2.89087C2.68507 16.3456 2.4815 16.3029 2.293 16.2203C2.10449 16.1377 1.93512 16.017 1.79556 15.8657C1.656 15.7145 1.54927 15.536 1.48208 15.3414C1.41489 15.1469 1.3887 14.9406 1.40517 14.7354L2.00377 7.28083V7.28083Z" stroke="#FD2046" stroke-width="1.49092" stroke-linecap="round" stroke-linejoin="round"/>
<path d="M10.9661 8.14566V4.41836C10.9661 3.62753 10.652 2.86909 10.0928 2.30988C9.53355 1.75068 8.77511 1.43652 7.98428 1.43652C7.19345 1.43652 6.435 1.75068 5.8758 2.30988C5.3166 2.86909 5.00244 3.62753 5.00244 4.41836V8.14566" stroke="#FD2046" stroke-width="1.49092" stroke-linecap="round" stroke-linejoin="round"/>
</svg>
