<svg width="18" height="17" viewBox="0 0 18 17" fill="none" xmlns="http://www.w3.org/2000/svg">
<path fill-rule="evenodd" clip-rule="evenodd" d="M12.0433 6.54824C12.0433 7.33908 11.7291 8.09752 11.1699 8.65672C10.6107 9.21593 9.85226 9.53008 9.06143 9.53008C8.2706 9.53008 7.51215 9.21593 6.95295 8.65672C6.39375 8.09752 6.07959 7.33908 6.07959 6.54824C6.07959 5.75741 6.39375 4.99897 6.95295 4.43977C7.51215 3.88056 8.2706 3.56641 9.06143 3.56641C9.85226 3.56641 10.6107 3.88056 11.1699 4.43977C11.7291 4.99897 12.0433 5.75741 12.0433 6.54824V6.54824ZM10.5523 6.54824C10.5523 6.94366 10.3953 7.32288 10.1157 7.60248C9.83607 7.88208 9.45684 8.03916 9.06143 8.03916C8.66601 8.03916 8.28679 7.88208 8.00719 7.60248C7.72759 7.32288 7.57051 6.94366 7.57051 6.54824C7.57051 6.15283 7.72759 5.77361 8.00719 5.49401C8.28679 5.2144 8.66601 5.05733 9.06143 5.05733C9.45684 5.05733 9.83607 5.2144 10.1157 5.49401C10.3953 5.77361 10.5523 6.15283 10.5523 6.54824V6.54824Z" fill="#545454"/>
<path fill-rule="evenodd" clip-rule="evenodd" d="M9.06138 0.584961C4.53272 0.584961 0.861328 4.25635 0.861328 8.78502C0.861328 13.3137 4.53272 16.9851 9.06138 16.9851C13.59 16.9851 17.2614 13.3137 17.2614 8.78502C17.2614 4.25635 13.59 0.584961 9.06138 0.584961ZM2.35225 8.78502C2.35225 10.343 2.88376 11.7773 3.77458 12.9164C4.4002 12.0948 5.20728 11.429 6.1328 10.9709C7.05831 10.5129 8.07719 10.275 9.10984 10.2759C10.1291 10.275 11.1352 10.5067 12.0514 10.9534C12.9676 11.4001 13.7697 12.0501 14.3966 12.8537C15.0425 12.0066 15.4774 11.0178 15.6653 9.96925C15.8532 8.92066 15.7887 7.84241 15.4772 6.8237C15.1656 5.80499 14.616 4.87512 13.8737 4.11101C13.1314 3.34691 12.2178 2.77054 11.2086 2.42961C10.1993 2.08867 9.1234 1.99296 8.06982 2.15041C7.01623 2.30785 6.01528 2.71391 5.14978 3.335C4.28429 3.95609 3.57913 4.77435 3.09266 5.72207C2.60619 6.66979 2.35238 7.71973 2.35225 8.78502V8.78502ZM9.06138 15.4942C7.52123 15.4965 6.02756 14.9666 4.83314 13.9943C5.31391 13.306 5.95381 12.7441 6.69842 12.3563C7.44303 11.9685 8.27029 11.7663 9.10984 11.7669C9.93891 11.7662 10.7562 11.9633 11.4938 12.3419C12.2314 12.7205 12.868 13.2696 13.3508 13.9436C12.1471 14.9475 10.6288 15.4964 9.06138 15.4942V15.4942Z" fill="#545454"/>
</svg>
