<svg width="24" height="24" viewBox="0 0 24 24" fill="none" xmlns="http://www.w3.org/2000/svg">
<rect x="0.535156" y="0.449219" width="23.3361" height="23.3361" rx="11.6681" fill="#348D7D" fill-opacity="0.7"/>
<path d="M17.7652 7.92286C17.2996 8.25126 16.7842 8.50243 16.2386 8.66671C15.9458 8.33004 15.5567 8.09141 15.1238 7.98311C14.691 7.8748 14.2353 7.90205 13.8185 8.06115C13.4016 8.22026 13.0437 8.50355 12.7931 8.87271C12.5425 9.24187 12.4113 9.67909 12.4173 10.1252V10.6114C11.5629 10.6336 10.7163 10.4441 9.95285 10.0598C9.18943 9.67556 8.53288 9.10846 8.04169 8.40903C8.04169 8.40903 6.09698 12.7846 10.4726 14.7293C9.4713 15.409 8.27853 15.7498 7.06934 15.7017C11.4449 18.1326 16.7929 15.7017 16.7929 10.1107C16.7924 9.97523 16.7794 9.84014 16.754 9.70712C17.2502 9.21778 17.6003 8.59996 17.7652 7.92286Z" fill="white"/>
</svg>
