<svg width="132" height="15" viewBox="0 0 132 15" fill="none" xmlns="http://www.w3.org/2000/svg">
<path d="M0.889136 14.2734H3.81578V9.36641H5.95162L8.57412 14.2734H11.8049L8.86475 8.89328C10.4396 8.21738 11.3115 6.8453 11.3115 4.95278C11.3115 2.20187 9.49334 0.431013 6.35041 0.431013H0.889136V14.2734ZM3.81578 7.01428V2.8237H5.78941C7.47916 2.8237 8.297 3.57395 8.297 4.95278C8.297 6.32486 7.47916 7.01428 5.80293 7.01428H3.81578ZM16.2861 14.4694C17.8204 14.4694 18.814 13.8003 19.3209 12.8338H19.402V14.2734H22.1327V7.27112C22.1327 4.79732 20.0374 3.75644 17.7258 3.75644C15.2385 3.75644 13.6028 4.94602 13.204 6.83854L15.8671 7.05483C16.0631 6.36541 16.6782 5.85849 17.7123 5.85849C18.6923 5.85849 19.2533 6.35189 19.2533 7.20353V7.24408C19.2533 7.91322 18.5436 8.00109 16.739 8.17682C14.6842 8.36608 12.839 9.05549 12.839 11.3738C12.839 13.4286 14.3057 14.4694 16.2861 14.4694ZM17.1107 12.4823C16.2253 12.4823 15.59 12.07 15.59 11.2792C15.59 10.4681 16.2591 10.0693 17.2729 9.9274C17.9015 9.83954 18.9289 9.69084 19.2736 9.46103V10.5627C19.2736 11.6509 18.3747 12.4823 17.1107 12.4823ZM27.2458 8.27145C27.2526 6.93317 28.0502 6.14912 29.2127 6.14912C30.3685 6.14912 31.0647 6.90613 31.0579 8.17682V14.2734H33.9372V7.66314C33.9372 5.24342 32.5179 3.75644 30.355 3.75644C28.8139 3.75644 27.6987 4.51345 27.2323 5.72331H27.1107V3.89162H24.3665V14.2734H27.2458V8.27145ZM39.167 14.4694C40.7013 14.4694 41.6949 13.8003 42.2018 12.8338H42.2829V14.2734H45.0136V7.27112C45.0136 4.79732 42.9183 3.75644 40.6067 3.75644C38.1194 3.75644 36.4837 4.94602 36.0849 6.83854L38.748 7.05483C38.944 6.36541 39.559 5.85849 40.5932 5.85849C41.5732 5.85849 42.1342 6.35189 42.1342 7.20353V7.24408C42.1342 7.91322 41.4245 8.00109 39.6199 8.17682C37.5651 8.36608 35.7199 9.05549 35.7199 11.3738C35.7199 13.4286 37.1866 14.4694 39.167 14.4694ZM39.9916 12.4823C39.1062 12.4823 38.4708 12.07 38.4708 11.2792C38.4708 10.4681 39.14 10.0693 40.1538 9.9274C40.7824 9.83954 41.8098 9.69084 42.1545 9.46103V10.5627C42.1545 11.6509 41.2556 12.4823 39.9916 12.4823ZM49.4508 14.2734H52.3031L54.9324 5.22314H55.0405L57.6765 14.2734H60.5288L64.4896 0.431013H61.2926L59.0013 10.0693H58.8796L56.3585 0.431013H53.6211L51.0933 10.0491H50.9784L48.6871 0.431013H45.4901L49.4508 14.2734ZM67.8471 14.4694C69.3814 14.4694 70.375 13.8003 70.8819 12.8338H70.963V14.2734H73.6937V7.27112C73.6937 4.79732 71.5984 3.75644 69.2868 3.75644C66.7995 3.75644 65.1638 4.94602 64.765 6.83854L67.4281 7.05483C67.6241 6.36541 68.2392 5.85849 69.2733 5.85849C70.2533 5.85849 70.8143 6.35189 70.8143 7.20353V7.24408C70.8143 7.91322 70.1046 8.00109 68.3 8.17682C66.2453 8.36608 64.4 9.05549 64.4 11.3738C64.4 13.4286 65.8667 14.4694 67.8471 14.4694ZM68.6717 12.4823C67.7863 12.4823 67.151 12.07 67.151 11.2792C67.151 10.4681 67.8201 10.0693 68.8339 9.9274C69.4625 9.83954 70.4899 9.69084 70.8346 9.46103V10.5627C70.8346 11.6509 69.9357 12.4823 68.6717 12.4823ZM81.4496 3.89162H79.4963V1.40431H76.6169V3.89162H75.1975V6.0545H76.6169V11.4617C76.6034 13.4962 77.989 14.5032 80.0775 14.4154C80.821 14.3883 81.3482 14.2396 81.6389 14.145L81.186 12.0024C81.0441 12.0295 80.7399 12.097 80.4696 12.097C79.895 12.097 79.4963 11.8808 79.4963 11.0832V6.0545H81.4496V3.89162ZM87.2573 2.84397H91.4952V14.2734H94.388V2.84397H98.6259V0.431013H87.2573V2.84397ZM103.67 14.4762C106.238 14.4762 107.969 13.2258 108.374 11.2995L105.711 11.1237C105.42 11.9145 104.677 12.3268 103.717 12.3268C102.277 12.3268 101.365 11.3738 101.365 9.82602V9.81926H108.435V9.02846C108.435 5.50026 106.299 3.75644 103.555 3.75644C100.5 3.75644 98.5195 5.92608 98.5195 9.12984C98.5195 12.4215 100.473 14.4762 103.67 14.4762ZM101.365 8.03488C101.426 6.85206 102.325 5.9058 103.602 5.9058C104.853 5.9058 105.718 6.79799 105.725 8.03488H101.365ZM115.005 14.4762C117.769 14.4762 119.506 12.854 119.641 10.4681H116.924C116.755 11.5766 116.025 12.1984 115.038 12.1984C113.693 12.1984 112.821 11.0697 112.821 9.08253C112.821 7.12242 113.7 6.00043 115.038 6.00043C116.093 6.00043 116.769 6.6966 116.924 7.73073H119.641C119.52 5.33129 117.701 3.75644 114.991 3.75644C111.841 3.75644 109.895 5.9396 109.895 9.12308C109.895 12.2795 111.808 14.4762 115.005 14.4762ZM124.364 8.27145C124.371 6.93317 125.189 6.14912 126.365 6.14912C127.534 6.14912 128.224 6.89937 128.217 8.17682V14.2734H131.096V7.66314C131.103 5.2299 129.67 3.75644 127.507 3.75644C125.932 3.75644 124.878 4.49993 124.405 5.72331H124.283V0.431013H121.485V14.2734H124.364V8.27145Z" fill="#2D2F30"/>
</svg>
